<svg xmlns="http://www.w3.org/2000/svg" version="1.1" viewBox="126 141 500 500" fill="#ff9b88">
  <path d="m601.16 376.36-17.449 20.863c-1.3984 1.6797-3.6914 2.7969-5.9297 3.0781h-0.83984c-2.2383 0-4.25-0.55859-5.9297-1.957l-195.04-162.6-194.98 162.6c-1.957 1.3984-4.25 2.2383-6.7695 1.957-2.2383-0.28125-4.5312-1.3984-5.9297-3.1328l-17.449-20.809c-3.1328-3.6914-2.5742-9.6211 1.1172-12.695l202.59-168.8c11.859-9.8438 31.043-9.8438 42.844 0l68.797 57.5v-54.98c0-5.0352 3.9141-9.0039 9.0039-9.0039h54.086c5.0898 0 9.0039 3.9727 9.0039 9.0039v115l61.75 51.289c3.6367 3.0781 4.1953 9.0039 1.1172 12.695z" fill-rule="evenodd"/>
  <path d="m538.96 411.21v135.25c0 9.8984-8.168 18.066-18.066 18.066h-108.17v-108.23h-72.152v108.23h-108.23c-9.8438 0-18.012-8.168-18.012-18.066v-135.25c0-0.55859 0.28125-1.1758 0.28125-1.7344l162.04-133.57 162.04 133.57c0.28125 0.55859 0.28125 1.1758 0.28125 1.7344z" fill-rule="evenodd"/>
</svg>