<svg xmlns="http://www.w3.org/2000/svg" version="1.1" viewBox="186 216 380 380" fill="#88d4fb">
  <path d="m242.45 310.17c0 24.152 19.418 43.57 43.57 43.57 24.152 0 43.57-19.418 43.57-43.57s-19.418-43.57-43.57-43.57c-24.156 0.003907-43.57 19.418-43.57 43.57z"/>
  <path d="m196.52 431.41c0 11.367 8.9961 20.363 20.363 20.363h74.352c4.2617 0 7.5781-2.8398 8.9961-6.6289 11.84-37.414 45.938-48.777 47.359-49.254 3.3164-0.94531 5.6836-3.7891 6.6289-7.1055 0.94531-3.3164-0.47266-7.1055-3.3164-8.9961-11.84-9.4727-26.992-15.156-42.148-15.156h-45.938c-36.461 0.47656-66.297 30.312-66.297 66.777z"/>
  <path d="m491.55 322.49c0-33.152-26.992-60.145-60.145-60.145s-60.145 26.992-60.145 60.145c0 33.152 26.992 60.145 60.145 60.145s60.145-26.996 60.145-60.145z"/>
  <path d="m555.49 492.5c0-50.672-41.203-91.402-91.402-91.402h-65.828c-50.672 0-91.871 41.203-91.871 91.402 0 14.207 11.367 25.574 25.574 25.574h198.43c13.73-0.003906 25.098-11.367 25.098-25.574z"/>
</svg>