<svg xmlns="http://www.w3.org/2000/svg" version="1.1" viewBox="126 126 500 500">
   <path d="m371.62 139.25c-62.535 1.1562-122.08 27.008-165.62 71.914-43.543 44.902-67.551 105.21-66.777 167.75 0.76953 62.543 26.254 122.24 70.891 166.06 44.633 43.82 104.79 68.195 167.34 67.812 62.547-0.38672 122.4-25.504 166.49-69.867 44.09-44.367 68.84-104.37 68.84-166.92l-0.070313-5.8359-0.003906 0.003907c-1.5391-62.531-27.758-121.91-72.93-165.17-45.172-43.266-105.62-66.902-168.16-65.746zm0.83203 45.148c50.613-0.93359 99.539 18.191 136.1 53.207 36.559 35.012 57.777 83.07 59.023 133.67l0.058594 4.7227c0 50.621-20.027 99.184-55.711 135.09-35.684 35.902-84.125 56.23-134.74 56.543-50.621 0.3125-99.309-19.418-135.43-54.879-36.125-35.461-56.75-83.773-57.375-134.39-0.62109-50.617 18.805-99.426 54.043-135.77s83.426-57.262 134.04-58.199zm106.06 78.766-133.69 159.32-77.16-64.742-30.27 36.074 113.23 95.016 30.27-36.074 133.69-159.32-36.074-30.27z"/>
</svg>