<svg xmlns="http://www.w3.org/2000/svg" width="752pt" height="752pt" version="1.1" viewBox="148 165 458 458" fill="#aeaeae">
  <path d="m219.72 239.61c0 6.5391-5.3008 11.84-11.84 11.84-6.5391 0-11.84-5.3008-11.84-11.84s5.3008-11.84 11.84-11.84c6.5391 0 11.84 5.3008 11.84 11.84"/>
  <path d="m254.29 239.61c0 6.5391-5.3008 11.84-11.84 11.84s-11.84-5.3008-11.84-11.84 5.3008-11.84 11.84-11.84 11.84 5.3008 11.84 11.84"/>
  <path d="m288.39 239.61c0 6.5391-5.3008 11.84-11.84 11.84-6.5391 0-11.84-5.3008-11.84-11.84s5.3008-11.84 11.84-11.84c6.5391 0 11.84 5.3008 11.84 11.84"/>
  <path d="m569.7 184.2h-387.39c-17.051 0-31.258 13.734-31.258 31.258v321.56c0 17.051 13.734 31.258 31.258 31.258h387.86c17.051 0 31.258-13.734 31.258-31.258l-0.003907-321.56c-0.47266-17.047-14.207-31.258-31.73-31.258zm-387.39 24.156h387.86c3.7891 0 7.1055 3.3164 7.1055 7.1055v55.41l-402.07-0.003906v-55.41c0-3.7891 3.3164-7.1016 7.1055-7.1016zm387.39 335.29h-387.39c-3.7891 0-7.1055-3.3164-7.1055-7.1055v-242h401.6v242c0 3.7891-3.3164 7.1016-7.1055 7.1016z"/>
  <path d="m311.59 406.31 13.262-13.262 13.262 13.262c2.3672 2.3672 5.2109 3.3164 8.5234 3.3164 3.3164 0 6.1562-0.94531 8.5234-3.3164 4.7344-4.7344 4.7344-12.312 0-17.051l-13.262-13.262 13.262-13.262c4.7344-4.7344 4.7344-12.312 0-17.051-4.7344-4.7344-12.312-4.7344-17.051 0l-13.262 13.262-13.262-13.262c-4.7344-4.7344-12.312-4.7344-17.051 0-4.7344 4.7344-4.7344 12.312 0 17.051l13.262 13.262-13.262 13.262c-4.7344 4.7344-4.7344 12.312 0 17.051 2.3672 2.3672 5.2109 3.3164 8.5234 3.3164 3.3242-0.003906 6.1641-0.94922 8.5312-3.3164z"/>
  <path d="m457.46 346.16c-4.7344-4.7344-12.312-4.7344-17.051 0l-13.262 13.262-13.262-13.262c-4.7344-4.7344-12.312-4.7344-17.051 0-4.7344 4.7344-4.7344 12.312 0 17.051l13.262 13.262-13.262 13.262c-4.7344 4.7344-4.7344 12.312 0 17.051 2.3672 2.3672 5.2109 3.3164 8.5234 3.3164 3.3164 0 6.1562-0.94531 8.5234-3.3164l13.262-13.262 13.262 13.262c2.3672 2.3672 5.2109 3.3164 8.5234 3.3164 3.3164 0 6.1562-0.94531 8.5234-3.3164 4.7344-4.7344 4.7344-12.312 0-17.051l-13.254-13.738 13.262-13.262c4.7344-4.2578 4.7344-11.836 0-16.574z"/>
  <path d="m376 429.99c-32.676 0-62.039 19.418-75.301 49.254-2.8398 6.1562 0 13.262 6.1562 15.629 6.1562 2.8398 13.262 0 15.629-6.1562 8.9961-21.312 29.836-35.047 53.043-35.047 22.73 0 43.57 13.734 52.566 35.047 1.8945 4.7344 6.6289 7.1055 10.891 7.1055 1.4219 0 3.3164-0.47266 4.7344-0.94531 6.1562-2.8398 8.9961-9.4727 6.1562-15.629-11.836-29.84-41.195-49.258-73.875-49.258z"/>
</svg>