<svg xmlns="http://www.w3.org/2000/svg" viewBox="121 121 510 510">
  <path d="m591.04 418.03c-2.8086-2.7461-6.8438-3.8359-10.652-2.8867-16.496 4.3438-33.484 6.5312-50.543 6.5117-40.785-0.078125-80.566-12.637-114-35.988-33.438-23.352-58.93-56.379-73.047-94.641-14.117-38.266-16.188-79.93-5.9336-119.41 0.94922-3.8047-0.16797-7.8281-2.9414-10.598-2.7695-2.7734-6.793-3.8906-10.598-2.9414-50.719 13.152-95.152 43.82-125.43 86.578-30.285 42.758-44.469 94.848-40.043 147.05 4.4297 52.211 27.18 101.17 64.227 138.22 37.051 37.051 86.012 59.801 138.22 64.227 52.211 4.4258 104.3-9.7578 147.06-40.039 42.758-30.285 73.426-74.715 86.578-125.43 1.0312-3.8125-0.074219-7.8828-2.8867-10.656z"/>
</svg>