<svg viewBox="37.5 64.483 723.83 469.04" xmlns="http://www.w3.org/2000/svg">
<path d="m424.5 65.5h-23v41h-36v-30c2.182-5.6806 6.182-9.514 12-11.5 15.839-0.828 31.505-0.6613 47 0.5z" fill="#fedc70"/>
<path d="m424.5 65.5c6.382 0.776 10.882 4.1094 13.5 10 0.5 10.328 0.666 20.661 0.5 31h-37v-41h23z" fill="#fecf5b"/>
<path d="m365.5 76.5v30h36v35c13.844-0.329 27.51 4e-3 41 1h-82-7c-0.167-11.005 0-22.005 0.5-33 2.897-2.731 6.397-3.731 10.5-3-0.327-10.181 6e-3 -20.181 1-30z" fill="#feee85"/>
<path d="m401.5 106.5h37c3.631-0.468 6.965 0.199 10 2 0.999 11.314 1.332 22.647 1 34h-7c-13.49-0.996-27.156-1.329-41-1v-35z" fill="#fedd70"/>
<path d="m164.5 137.5h86v63h-29c-5e-3 -8.676-3.671-15.342-11-20-3.687-2.51-7.687-4.51-12-6-11.118-3.297-22.451-5.297-34-6v-31z" fill="rgba(223, 244, 254, 0.56)"/>
<path d="m250.5 137.5h21c6.005 1.001 12.005 2.001 18 3 17.422 7.489 25.089 20.823 23 40-4.014-0.166-8.014 1e-3 -12 0.5-11.011 2.519-18.344 9.019-22 19.5h-28v-63z" fill="#dff4fe"/>
<path d="m534.5 136.5v51h25v1h-26-26c-0.166-8.673 0-17.34 0.5-26 3.925-3.211 8.425-5.211 13.5-6v-12c-1.341-1.62-3.174-2.62-5.5-3-0.72-1.612-0.554-3.112 0.5-4.5 5.991-0.499 11.991-0.666 18-0.5z" fill="#de5e4c"/>
<path d="m534.5 136.5c4.346-0.166 8.679 1e-3 13 0.5 1.247 1.458 1.247 2.958 0 4.5 4.147 0.667 8.147 1.334 12 2h-14v13c4.297 0.646 8.297 2.146 12 4.5 1.323 0.816 1.989 1.983 2 3.5v23h-25v-51z" fill="#d14428"/>
<path d="m164.5 137.5v31c-6.045 0.072-12.045-0.428-18-1.5-1.5-0.833-2.667-2-3.5-3.5-0.667-7-0.667-14 0-21l3.5-3.5c5.998-0.591 11.998-1.091 18-1.5z" fill="#584942"/>
<path d="m360.5 142.5h82v1h-41v100h-105c10.48-40.644 31.813-74.311 64-101z" fill="#df5c4a"/>
<path d="m442.5 143.5c18.59 14.255 33.59 31.588 45 52 8.535 14.405 14.868 29.739 19 46v2c-11.081 0.31-22.081-0.023-33-1-3.156-11.309-8.156-21.643-15-31-4.306-7.14-10.306-12.307-18-15.5-6.103-1.574-10.936 0.26-14.5 5.5-3.871 6.488-6.038 13.488-6.5 21-0.991 6.813-1.325 13.813-1 21h-17v-100h41z" fill="#d24529"/>
<path d="m559.5 143.5c1.562 0.233 2.895 0.9 4 2 1.712 2.396 2.212 5.062 1.5 8-1.337 4.007-3.17 7.673-5.5 11-0.011-1.517-0.677-2.684-2-3.5-3.703-2.354-7.703-3.854-12-4.5v-13h14z" fill="#be3520"/>
<path d="m198.5 174.5c4.313 1.49 8.313 3.49 12 6-7.715 11.547-17.548 20.881-29.5 28-2.018-1.85-3.851-3.85-5.5-6 4.685-4.851 9.185-9.851 13.5-15 2.726-4.119 4.893-8.452 6.5-13h3z" fill="#584942"/>
<path d="m706.5 192.5h-31c-11.826-0.831-23.826-1.331-36-1.5-1.545-1.822-2.212-3.989-2-6.5-0.212-2.511 0.455-4.678 2-6.5 22.332-1.172 44.665-1.838 67-2l1.5 1.5c0.667 4.667 0.667 9.333 0 14-0.383 0.556-0.883 0.889-1.5 1z" fill="#dbdbdb"/>
<path d="m108.5 180.5c4.346-0.166 8.679 1e-3 13 0.5 3.646 1.076 6.48 3.243 8.5 6.5 0.5 10.995 0.667 21.995 0.5 33h-22v-40z" fill="#bde2ed"/>
<path d="m108.5 180.5v40h-23v-2c-0.1665-10.006 2e-4 -20.006 0.5-30 1.8333-3.167 4.3333-5.667 7.5-7.5 4.9889-0.499 9.989-0.666 15-0.5z" fill="#dff4fe"/>
<path d="m533.5 188.5h26c14.093 5.545 28.093 11.378 42 17.5 7.982 5.128 13.149 12.295 15.5 21.5 2.282 10.526 0.115 19.86-6.5 28 0.237-1.291-0.096-2.291-1-3 0.958-1.462 2.124-2.795 3.5-4 0.667-0.667 0.667-1.333 0-2-1.667 1.233-3.167 2.567-4.5 4-2.256-5.129-6.256-7.129-12-6-2.769 0.029-5.103 0.695-7 2-1.539-4.485-2.872-9.152-4-14-1.098 3.253-1.764 6.586-2 10h-50v-54z" fill="#dff4fe"/>
<path d="m221.5 200.5h29v42h31v-7c0.977 2.787 1.31 5.787 1 9h-61v-44z" fill="#3cadc9"/>
<path d="m250.5 200.5h28c1.56 11.608 2.56 23.274 3 35v7h-31v-42z" fill="#2d9db7"/>
<path d="m675.5 207.5h7v39h-28c-1.091-12.819 4.242-21.819 16-27 0.825-3.622 1.325-7.289 1.5-11 1.011-0.837 2.178-1.17 3.5-1z" fill="rgba(219, 242, 252, 0.48)"/>
<path d="m675.5 192.5h31c-5.475 0.989-11.142 1.322-17 1v14c1.322-0.17 2.489 0.163 3.5 1 0.177 3.856 0.677 7.523 1.5 11 6.191 2.189 10.858 6.189 14 12 1.652 4.841 2.318 9.841 2 15h-28v-39h-7v-15z" fill="#dbf2fc"/>
<path d="m458.5 211.5c6.844 9.357 11.844 19.691 15 31v1c-7.92 0.315-15.753-0.018-23.5-1-1.812-11.681 1.021-22.015 8.5-31z" fill="rgba(223, 244, 254, 0.64)"/>
<path d="m85.5 220.5h23v22h30v1h-30-31v-12c-0.1646-3.018 2e-3 -6.018 0.5-9 2.1354-1.778 4.6354-2.445 7.5-2z" fill="#f5fcff"/>
<path d="m108.5 220.5h22c2.865-0.445 5.365 0.222 7.5 2 0.5 6.658 0.666 13.325 0.5 20h-30v-22z" fill="#dff5fe"/>
<path d="m507.5 188.5h26v54h50c0.236-3.414 0.902-6.747 2-10 1.128 4.848 2.461 9.515 4 14 1.079 3.925 3.079 7.258 6 10 4.505-1.755 8.839-3.755 13-6 1.333-1.433 2.833-2.767 4.5-4 0.667 0.667 0.667 1.333 0 2-1.376 1.205-2.542 2.538-3.5 4-2.361 3.551-4.361 7.385-6 11.5 0.877 2.378 2.544 3.878 5 4.5 5.993 2.641 12.326 4.474 19 5.5-5.747 1.518-11.413 3.352-17 5.5-0.992-0.172-1.658 0.162-2 1-2.223 0.614-3.889 1.948-5 4 1.263 4.173 3.263 7.839 6 11v1c0.976 1.315 1.976 2.648 3 4-0.47 0.963-1.137 0.963-2 0-4.863-4.115-10.196-6.448-16-7-0.667 0-1 0.333-1 1-1.841 2.349-3.174 5.015-4 8-0.333 0.667-0.667 1.333-1 2-1.247 4.212-2.08 8.545-2.5 13-1.195-8.917-4.362-17.083-9.5-24.5-5.883 1.106-11.217 3.606-16 7.5l-1-1c2.514-3.03 4.514-6.363 6-10 1.999-2.685 1.999-5.185 0-7.5-6.745-4.208-14.078-6.375-22-6.5-0.789-0.283-1.456-0.783-2-1.5 5.49-0.54 10.823-1.706 16-3.5 1.109-0.057 2.109-0.39 3-1 2.39-0.946 4.556-2.279 6.5-4 0.765-1.566 0.598-2.899-0.5-4-2.101-5.364-5.101-10.198-9-14.5 5.269 3.727 11.103 6.893 17.5 9.5 1.261-0.259 2.261-0.926 3-2 1.604-3.321 3.104-6.654 4.5-10-25.389-0.352-50.722-1.352-76-3-4.132-16.261-10.465-31.595-19-46 6.667-2.333 13.333-4.667 20-7z" fill="#ebf8fe"/>
<path d="m77.5 243.5h31c-6e-3 67.638-6e-3 134.97 0 202-4.333 5-9 9.667-14 14-12.671 0.167-25.338 0-38-0.5-3.9723-1.319-7.6389-3.153-11-5.5-4.073-4.146-6.573-9.146-7.5-15-0.6667-21.667-0.6667-43.333 0-65 4.338-8.684 9.1713-17.017 14.5-25 1.7525-2.646 2.7525-5.646 3-9 1.9584-7.364 0.7917-14.364-3.5-21-6.2536-5.582-10.92-12.249-14-20-0.6667-8-0.6667-16 0-24 1.6162-5.279 4.4495-9.779 8.5-13.5 10.361-5.845 20.694-11.679 31-17.5z" fill="#fae3a6"/>
<path d="m108.5 243.5h30c10.133 5.234 20.133 10.734 30 16.5 6.671 4.843 10.004 11.343 10 19.5-4.351 1.247-8.685 2.414-13 3.5 4.191 0.074 8.191 0.907 12 2.5 0.993 4.62 1.327 9.286 1 14-0.904 0.709-1.237 1.709-1 3-8.964 6.149-15.131 14.482-18.5 25-3.219 29.632-6.053 59.298-8.5 89-1.333-1-2.667-2-4-3-1.446-1.113-3.113-1.28-5-0.5-10.868 11.035-21.868 21.869-33 32.5-6e-3 -67.028-6e-3 -134.36 0-202z" fill="#fedd6f"/>
<path d="m419.5 222.5v22h-123v-1h105 17c-0.325-7.187 9e-3 -14.187 1-21z" fill="#ac5448"/>
<path d="m473.5 242.5c10.919 0.977 21.919 1.31 33 1v1h-33v-1-1z" fill="#a33e2d"/>
<path d="m221.5 244.5h61 14 123 54 33 76c-1.396 3.346-2.896 6.679-4.5 10-0.739 1.074-1.739 1.741-3 2-6.397-2.607-12.231-5.773-17.5-9.5 3.899 4.302 6.899 9.136 9 14.5-119.5 1-239.17 1.333-359 1v6c-2.145 1.348-4.312 1.682-6.5 1-3.062-5.245-4.728-10.912-5-17-0.996 5.48-2.496 10.813-4.5 16-0.988-5.14-1.321-10.474-1-16 0.683-3.52 2.683-6.02 6-7.5 8.327-0.5 16.66-0.666 25-0.5z" fill="#1f1f2b"/>
<path d="m608.5 250.5c-4.161 2.245-8.495 4.245-13 6-2.921-2.742-4.921-6.075-6-10 1.897-1.305 4.231-1.971 7-2 5.744-1.129 9.744 0.871 12 6z" fill="#1e1e2a"/>
<path d="m654.5 246.5h28 28v1h-28v133c10.514-0.328 20.847 6e-3 31 1h-69-27v-26c12.514-36.207 24.847-72.54 37-109z" fill="#66ac5a"/>
<path d="m710.5 247.5c3.294 10.224 6.961 20.224 11 30 0.732 4.287 2.065 8.287 4 12 1.602 6.471 3.602 12.804 6 19 1.164 4.159 2.497 8.159 4 12 1.825 5.486 3.825 10.819 6 16 0.761 4.284 2.095 8.284 4 12 3.987 13.793 8.487 27.46 13.5 41 3.413 14.069 3.08 28.069-1 42-2.606 6.986-5.106 13.986-7.5 21-3.248 3.459-7.248 5.625-12 6.5-17.664 0.5-35.33 0.667-53 0.5 3.411-21.635 7.411-43.135 12-64.5 4.667-0.667 9.333-0.667 14 0 1.079 0.956 2.245 1.789 3.5 2.5 1.304 16.242 1.971 32.575 2 49 3.025 4.201 6.859 5.035 11.5 2.5 0.626-0.75 1.126-1.584 1.5-2.5 0.667-16.667 0.667-33.333 0-50-3.142-7.644-8.642-12.644-16.5-15-10.153-0.994-20.486-1.328-31-1v-133h28z" fill="#5b9b4e"/>
<path d="m190.5 252.5c-0.321 5.526 0.012 10.86 1 16 0 0.667-0.333 1-1 1-1.333-5.667-1.333-11.333 0-17z" fill="#719499"/>
<path d="m207.5 268.5c1.385-1.114 2.885-2.114 4.5-3 0.167 0.333 0.333 0.667 0.5 1-2.101 2.765-3.767 5.765-5 9 1.111 2.052 2.777 3.386 5 4h1c3.567 1.304 7.234 2.471 11 3.5-4.181 0.186-8.181 1.019-12 2.5-2.223 0.614-3.889 1.948-5 4 1.191 3.068 2.858 5.735 5 8v1c0.065 0.438-0.101 0.772-0.5 1-1.33-1.082-2.83-1.749-4.5-2-3.39-4.121-6.223-3.787-8.5 1-1.43 2.853-2.263 5.853-2.5 9-0.667-0.333-1.333-0.667-2-1-0.403-2.986-1.403-5.652-3-8 0.172-0.992-0.162-1.658-1-2v-1c-1.101-1.098-2.434-1.265-4-0.5-2.559 1.777-5.226 3.277-8 4.5 0.327-4.714-7e-3 -9.38-1-14-3.809-1.593-7.809-2.426-12-2.5 4.315-1.086 8.649-2.253 13-3.5 2.263-0.626 3.93-1.96 5-4-1.099-4.033-3.099-7.533-6-10.5 2.887 1.48 5.887 3.146 9 5 1.566 0.765 2.899 0.598 4-0.5 0.667 0 1-0.333 1-1 2.004-5.187 3.504-10.52 4.5-16 0.272 6.088 1.938 11.755 5 17 2.188 0.682 4.355 0.348 6.5-1z" fill="#f8f9f8"/>
<path d="m609.5 252.5c0.904 0.709 1.237 1.709 1 3 0.597 4.794-0.07 9.127-2 13-2.456-0.622-4.123-2.122-5-4.5 1.639-4.115 3.639-7.949 6-11.5z" fill="#252732"/>
<path d="m566.5 261.5c1.098 1.101 1.265 2.434 0.5 4-1.944 1.721-4.11 3.054-6.5 4-115.83-1-231.83-1.333-348-1v11c-2.223-0.614-3.889-1.948-5-4 1.233-3.235 2.899-6.235 5-9-0.167-0.333-0.333-0.667-0.5-1-1.615 0.886-3.115 1.886-4.5 3v-6c119.83 0.333 239.5 0 359-1z" fill="#878787"/>
<path d="m560.5 269.5c-0.891 0.61-1.891 0.943-3 1-114.5-1-229.16-1.333-344-1v7 3h-1v-11c116.17-0.333 232.17 0 348 1z" fill="#3d3d46"/>
<path d="m557.5 270.5c-5.177 1.794-10.51 2.96-16 3.5 0.544 0.717 1.211 1.217 2 1.5-109.83 0.999-219.83 1.333-330 1v-7c114.84-0.333 229.5 0 344 1z" fill="#1f1f2b"/>
<path d="m608.5 280.5c0.987 4.805 1.321 9.805 1 15-2.737-3.161-4.737-6.827-6-11 1.111-2.052 2.777-3.386 5-4z" fill="#1c1c27"/>
<path d="m608.5 280.5c0.342-0.838 1.008-1.172 2-1 0.322 5.858-0.011 11.525-1 17v-1c0.321-5.195-0.013-10.195-1-15z" fill="#414e57"/>
<path d="m565.5 289.5c-1.486 3.637-3.486 6.97-6 10l1 1c4.783-3.894 10.117-6.394 16-7.5 5.138 7.417 8.305 15.583 9.5 24.5 0.42-4.455 1.253-8.788 2.5-13 0.997 22.494 1.331 45.161 1 68-102.67-0.167-205.33 0-308 0.5 1.558 0.21 2.891 0.71 4 1.5h-4v5c-0.724-1.718-1.391-3.552-2-5.5-1.973-0.495-3.973-0.662-6-0.5v-55h-26c4.805-0.987 9.805-1.321 15-1v-3h-16v-4h27v-25c97.336-0.333 194.67 0 292 1-1.153 1.187-1.153 2.187 0 3z" fill="#3b3a47"/>
<path d="m179.5 286.5c2.067 0.032 3.4 1.032 4 3-3.639 10.091-4.972 9.091-4-3z" fill="#a9e8ec"/>
<path d="m212.5 285.5v12c-2.142-2.265-3.809-4.932-5-8 1.111-2.052 2.777-3.386 5-4z" fill="#888"/>
<path d="m296.5 291.5h54v4h-54v-4z" fill="#fbfbfb"/>
<path d="m610.5 300.5v31 50 43 6 59 26c-0.667 0-1 0.333-1 1h-163-92c-54.069-0.669-108.24-1.335-162.5-2-0.5-71.999-0.667-144-0.5-216 1.597 2.348 2.597 5.014 3 8 0.588 5.646 1.254 5.979 2 1 0.237-3.147 1.07-6.147 2.5-9 2.277-4.787 5.11-5.121 8.5-1v207c1.419 0.951 3.085 1.284 5 1 125.67 1.333 251.33 1.333 377 0h5v-212c5.804 0.552 11.137 2.885 16 7z" fill="#20202c"/>
<path d="m190.5 295.5c-4.493 2.079-8.826 4.412-13 7-0.237-1.291 0.096-2.291 1-3 2.774-1.223 5.441-2.723 8-4.5 1.566-0.765 2.899-0.598 4 0.5z" fill="#abe7e7"/>
<path d="m190.5 295.5v1 219c-0.994-9.152-1.327-18.485-1-28 0.167-10.672 0-21.339-0.5-32-12.981-12.814-25.814-25.814-38.5-39 2.447-29.702 5.281-59.368 8.5-89 3.369-10.518 9.536-18.851 18.5-25 4.174-2.588 8.507-4.921 13-7z" fill="#41aec9"/>
<path d="m207.5 297.5c1.67 0.251 3.17 0.918 4.5 2 0.399-0.228 0.565-0.562 0.5-1 1.882 0.721 2.215 1.721 1 3-0.999 67.498-1.333 135.16-1 203h-5v-207z" fill="#888"/>
<path d="m296.5 300.5c11.005-0.167 22.005 0 33 0.5 1.333 1.333 1.333 2.667 0 4-10.995 0.5-21.995 0.667-33 0.5v-5z" fill="#e9e9eb"/>
<path d="m459.5 300.5h33v5h-34c-0.134-1.792 0.199-3.458 1-5z" fill="#e9e9ea"/>
<path d="m281.5 301.5h4v5h-4v-5z" fill="#606a84"/>
<path d="m343.5 301.5h106v4c-35.002 0.167-70.002 0-105-0.5-0.837-1.011-1.17-2.178-1-3.5z" fill="#fc8a89"/>
<path d="m516.5 300.5h16v5h-17c-0.134-1.792 0.199-3.458 1-5z" fill="#1ae3b7"/>
<path d="m194.5 306.5c0.667 0.333 1.333 0.667 2 1-0.746 4.979-1.412 4.646-2-1z" fill="#a1a1a6"/>
<path d="m281.5 311.5h4v5h-4v-5z" fill="#606984"/>
<path d="m310.5 312.5h37v4h-37v-4z" fill="#fafafa"/>
<path d="m246.5 314.5h16v3c-5.195-0.321-10.195 0.013-15 1-3.018 0.165-6.018-2e-3 -9-0.5-0.935-2.381-1.268-4.881-1-7.5h8c-0.163 2.357 3e-3 4.69 0.5 7 0.483-0.948 0.649-1.948 0.5-3z" fill="#50556a"/>
<path d="m213.5 301.5c0.333 68.169-1e-3 136.17-1 204-1.915 0.284-3.581-0.049-5-1h5c-0.333-67.835 1e-3 -135.5 1-203z" fill="#4c4c55"/>
<path d="m543.5 275.5c7.922 0.125 15.255 2.292 22 6.5 1.999 2.315 1.999 4.815 0 7.5-1.153-0.813-1.153-1.813 0-3-97.331-1-194.66-1.333-292-1v25h-27v4c0.149 1.052-0.017 2.052-0.5 3-0.497-2.31-0.663-4.643-0.5-7h-8c-0.268 2.619 0.065 5.119 1 7.5 2.982 0.498 5.982 0.665 9 0.5h26v55c2.027-0.162 4.027 5e-3 6 0.5 0.609 1.948 1.276 3.782 2 5.5h4v-5c-1.109-0.79-2.442-1.29-4-1.5 102.67-0.5 205.33-0.667 308-0.5v10c-0.997 16.492-1.33 33.158-1 50h-3c1.963-16.428 2.63-33.095 2-50h-314v116h316v7c-125.67 1.333-251.33 1.333-377 0 0.999-67.831 1.333-135.83 1-204 1.215-1.279 0.882-2.279-1-3v-1-12c3.819-1.481 7.819-2.314 12-2.5-3.766-1.029-7.433-2.196-11-3.5v-3c110.17 0.333 220.17-1e-3 330-1z" fill="#2d2c39"/>
<path d="m230.5 301.5h7v5h-7v-5z" fill="#616a85"/>
<path d="m221.5 289.5h9v6h-9v-6z" fill="#59627a"/>
<path d="m232.5 291.5c3.072-0.317 6.072 0.016 9 1-1.5 0.333-3 0.667-4.5 1-1.986-0.069-3.486-0.735-4.5-2z" fill="#596179"/>
<path d="m328.5 322.5h44v4h-44v-4z" fill="#fcfcfc"/>
<path d="m245.5 322.5h6v5h-6v-5z" fill="#606a84"/>
<path d="m381.5 322.5h24v4h-24v-4z" fill="#fa8988"/>
<path d="m281.5 322.5h4v5h-4v-5z" fill="#616a84"/>
<path d="m244.5 331.5h7v6h-7v-6z" fill="#5b637c"/>
<path d="m328.5 333.5h35v4h-35v-4z" fill="#fcfcfc"/>
<path d="m281.5 332.5h4v5h-4v-5z" fill="#606a85"/>
<path d="m473.5 333.5h15v4h-15v-4z" fill="#faf570"/>
<path d="m255.5 334.5c4.384-0.326 8.717 8e-3 13 1-2.167 0.333-4.333 0.667-6.5 1-2.61-0.033-4.777-0.7-6.5-2z" fill="#5f6782"/>
<path d="m373.5 333.5h91v4h-91v-4z" fill="#fd8b8a"/>
<path d="m491.5 333.5h42v4h-42v-4z" fill="#fd8b8a"/>
<path d="m610.5 331.5c5.927 6.798 8.261 14.798 7 24v26h-7v-50z" fill="#ddf4f9"/>
<path d="m328.5 343.5h94v4h-94v-4z" fill="#fdfdfd"/>
<path d="m245.5 343.5h6v5h-6v-5z" fill="#616a85"/>
<path d="m244.5 352.5h7v8h-7v-8z" fill="#596179"/>
<path d="m310.5 354.5h22v4h-22v-4z" fill="#f9f9f9"/>
<path d="m281.5 353.5h4v6h-4v-6z" fill="#606984"/>
<path d="m255.5 356.5c4.384-0.326 8.717 8e-3 13 1-2.167 0.333-4.333 0.667-6.5 1-2.61-0.033-4.777-0.7-6.5-2z" fill="#636c88"/>
<path d="m310.5 364.5h40v4h-40v-4z" fill="#fcfcfc"/>
<path d="m359.5 364.5h91v4h-91v-4z" fill="#fefefe"/>
<path d="m281.5 364.5h4v5h-4v-5z" fill="#616a85"/>
<path d="m244.5 364.5h7v7h-7v-7z" fill="#5b637c"/>
<path d="m255.5 366.5h13v3h-13v-3z" fill="#616a85"/>
<path d="m285.5 374.5v5h-4v-5h4z" fill="#616a85"/>
<path d="m328.5 375.5h61v4h-62c-0.067-1.459 0.266-2.792 1-4z" fill="#fcfcfc"/>
<path d="m395.5 375.5h12v4h-12v-4z" fill="#01c5fc"/>
<path d="m232.5 374.5h6v5h-6v-5z" fill="#606984"/>
<path d="m241.5 376.5c5.044-0.327 10.044 6e-3 15 1-2.5 0.333-5 0.667-7.5 1-2.929-0.025-5.429-0.691-7.5-2z" fill="#5d667f"/>
<path d="m593.5 294.5v210h-3c0.332-67.502-1e-3 -134.84-1-202 0.826-2.985 2.159-5.651 4-8z" fill="#8d8d8c"/>
<path d="m644.5 381.5h69c7.858 2.356 13.358 7.356 16.5 15 0.667 16.667 0.667 33.333 0 50-0.374 0.916-0.874 1.75-1.5 2.5-4.641 2.535-8.475 1.701-11.5-2.5-0.029-16.425-0.696-32.758-2-49-1.255-0.711-2.421-1.544-3.5-2.5-4.667-0.667-9.333-0.667-14 0-4.589 21.365-8.589 42.865-12 64.5-0.65 1.935-0.983 3.935-1 6-1.763 6.425-2.93 13.092-3.5 20-0.748 2.251-2.248 3.584-4.5 4h-31c0.284-3.277-0.049-6.443-1-9.5 8.51-0.171 16.843-0.671 25-1.5 3.615-17.826 6.949-35.826 10-54h-23c-3.098-1.321-6.598-1.988-10.5-2-3.902 0.012-7.402 0.679-10.5 2h-1v-3h10v-4c-3.213 0.31-6.213-0.023-9-1h12v-3h-12c2.787-0.977 5.787-1.31 9-1v-5h12v-4h-12v-22z" fill="#4fc1db"/>
<path d="m585.5 432.5h3c-0.33-16.842 3e-3 -33.508 1-50v116h-316v-116h314c0.63 16.905-0.037 33.572-2 50z" fill="#393946"/>
<path d="m594.5 293.5v212h-5v-7-116-10c0.331-22.839-3e-3 -45.506-1-68 0.333-0.667 0.667-1.333 1-2 0.999 67.165 1.332 134.5 1 202h3v-210c0-0.667 0.333-1 1-1z" fill="#68686c"/>
<path d="m610.5 381.5h7 27v22h-10v4h10v5c-3.213-0.31-6.213 0.023-9 1v3c2.787 0.977 5.787 1.31 9 1v4h-10v3h-24v-43z" fill="#76dcf3"/>
<path d="m223.5 384.5h6v6h-6v-6z" fill="#636c87"/>
<path d="m343.5 385.5c11.338-0.167 22.672 0 34 0.5 0.837 1.011 1.17 2.178 1 3.5h-35v-4z" fill="#f7f7f8"/>
<path d="m432.5 385.5h31v4h-31v-4z" fill="#fafafa"/>
<path d="m233.5 386.5c7.696-0.331 15.362 3e-3 23 1-3.833 0.333-7.667 0.667-11.5 1-4.229-0.01-8.062-0.677-11.5-2z" fill="#626c87"/>
<path d="m471.5 385.5c4.346-0.166 8.679 1e-3 13 0.5 0.837 1.011 1.17 2.178 1 3.5h-14v-4z" fill="#06c1f6"/>
<path d="m384.5 385.5h38v4h-38v-4z" fill="#fc8989"/>
<path d="m223.5 395.5h6v5h-6v-5z" fill="#606a84"/>
<path d="m278.5 395.5h8v7h-8v-7z" fill="#5a627b"/>
<path d="m503.5 396.5h12v4h-12v-4z" fill="#02c5fa"/>
<path d="m233.5 397.5c7.696-0.331 15.362 3e-3 23 1-3.833 0.333-7.667 0.667-11.5 1-4.229-0.01-8.062-0.677-11.5-2z" fill="#626b86"/>
<path d="m360.5 396.5c11.671-0.167 23.338 0 35 0.5 0.837 1.011 1.17 2.178 1 3.5h-37c-0.067-1.459 0.266-2.792 1-4z" fill="#bd71f9"/>
<path d="m401.5 396.5c17.337-0.167 34.67 0 52 0.5 0.837 1.011 1.17 2.178 1 3.5h-54c-0.067-1.459 0.266-2.792 1-4z" fill="#f98989"/>
<path d="m459.5 396.5c11.671-0.167 23.338 0 35 0.5 0.837 1.011 1.17 2.178 1 3.5h-37c-0.067-1.459 0.266-2.792 1-4z" fill="#bd71f9"/>
<path d="m644.5 403.5h12v4h-12-10v-4h10z" fill="#59524d"/>
<path d="m223.5 405.5h7v7h-7v-7z" fill="#5c647e"/>
<path d="m360.5 406.5h47v4h-48c-0.067-1.459 0.266-2.792 1-4z" fill="#f9f9f9"/>
<path d="m412.5 406.5c4.679-0.166 9.345 1e-3 14 0.5 1.333 1.333 1.333 2.667 0 4-4.655 0.499-9.321 0.666-14 0.5v-5z" fill="#0dbcee"/>
<path d="m432.5 406.5h100v4h-100v-4z" fill="#fafafa"/>
<path d="m233.5 408.5c7.696-0.331 15.362 3e-3 23 1-3.833 0.333-7.667 0.667-11.5 1-4.229-0.01-8.062-0.677-11.5-2z" fill="#5f6882"/>
<path d="m635.5 413.5h12v3h-12v-3z" fill="#574138"/>
<path d="m278.5 416.5h8v7h-8v-7z" fill="#5b637c"/>
<path d="m344.5 417.5c11.005-0.167 22.005 0 33 0.5 1.333 1.333 1.333 2.667 0 4-11 0.667-22 0.667-33 0-1.228-1.49-1.228-2.99 0-4.5z" fill="#e7e7e8"/>
<path d="m585.5 432.5c-5.84 0.846-10.34 3.846-13.5 9 0.483-6.205-2.017-10.705-7.5-13.5 6.051-0.439 10.551-3.272 13.5-8.5-0.36 6.174 2.14 10.507 7.5 13z" fill="#f4f4f4"/>
<path d="m656.5 424.5v1c-7.187 0.325-14.187-9e-3 -21-1 3.098-1.321 6.598-1.988 10.5-2 3.902 0.012 7.402 0.679 10.5 2z" fill="#53443f"/>
<path d="m634.5 424.5h1c6.813 0.991 13.813 1.325 21 1-3.462 0.982-7.129 1.315-11 1-4.149 0.58-7.816-0.086-11-2z" fill="#806d4e"/>
<path d="m656.5 424.5h23c-3.051 18.174-6.385 36.174-10 54h-1c-7.482-0.992-15.148-1.325-23-1 0.027-1.699 0.694-3.033 2-4v-3c-0.342-0.838-1.008-1.172-2-1v-5c3.871 0.315 7.538-0.018 11-1v-3h-21c6.821-0.829 13.821-1.329 21-1.5-3.652-0.499-7.318-0.665-11-0.5v-3c-3.871 0.315-7.538-0.018-11-1h1 12c0.934-1.068 1.268-2.401 1-4h-3v-5h11c0.268-1.599-0.066-2.932-1-4h-20-1c7.155-0.829 14.489-1.329 22-1.5-3.711-0.175-7.378-0.675-11-1.5 0.743-0.682 1.409-1.349 2-2v-1c0.934-1.068 1.268-2.401 1-4h-3v-5c3.871 0.315 7.538-0.018 11-1v-1z" fill="#fcdb6f"/>
<path d="m610.5 424.5h24c3.184 1.914 6.851 2.58 11 2v5h-11v5h13c-0.591 0.651-1.257 1.318-2 2 3.622 0.825 7.289 1.325 11 1.5-7.511 0.171-14.845 0.671-22 1.5v4h11v5h-11v4c3.462 0.982 7.129 1.315 11 1v3c3.682-0.165 7.348 1e-3 11 0.5-7.179 0.171-14.179 0.671-21 1.5-0.934 1.068-1.268 2.401-1 4h11v5h-11c-0.268 1.599 0.066 2.932 1 4h12c-1.306 0.967-1.973 2.301-2 4 7.852-0.325 15.518 8e-3 23 1h-49c-3.149-16.083-6.149-32.083-9-48v-6z" fill="#fdef85"/>
<path d="m328.5 427.5h23v5c-7.674 0.166-15.341 0-23-0.5-1.228-1.49-1.228-2.99 0-4.5z" fill="#e8e8e9"/>
<path d="m645.5 431.5h3c0.268 1.599-0.066 2.932-1 4v1h-13v-5h11z" fill="#ad9b61"/>
<path d="m278.5 427.5h8v6h-8v-6z" fill="#545b71"/>
<path d="m647.5 435.5h-12v-3h12v3z" fill="#4c3e3d"/>
<path d="m278.5 437.5h8v7h-8v-7z" fill="#5c647d"/>
<path d="m328.5 438.5c14.004-0.167 28.004 0 42 0.5 1.333 1.333 1.333 2.667 0 4-14 0.667-28 0.667-42 0-1.228-1.49-1.228-2.99 0-4.5z" fill="#e8e8ea"/>
<path d="m469.5 438.5h12v5h-12v-5z" fill="#0db8e9"/>
<path d="m378.5 438.5c14.337-0.167 28.671 0 43 0.5 1.333 1.333 1.333 2.667 0 4-14.333 0.667-28.667 0.667-43 0-1.228-1.49-1.228-2.99 0-4.5z" fill="#ec8384"/>
<path d="m427.5 438.5c11.671-0.167 23.338 0 35 0.5 1.333 1.333 1.333 2.667 0 4-11.667 0.667-23.333 0.667-35 0-1.228-1.49-1.228-2.99 0-4.5z" fill="#b46ded"/>
<path d="m634.5 441.5h1v3h20v-3c0.934 1.068 1.268 2.401 1 4h-11-11v-4z" fill="#897752"/>
<path d="m635.5 441.5h20v3h-20v-3z" fill="#4a3c3d"/>
<path d="m558.5 470.5h-2c-2.137-7.426-7.137-11.593-15-12.5 9.085-1.251 14.418-6.417 16-15.5 1.347 8.18 6.014 13.346 14 15.5-6.814 1.649-11.148 5.815-13 12.5z" fill="#f4f4f5"/>
<path d="m146.5 413.5c-0.739-0.131-1.406 0.036-2 0.5 5.043 1.869 6.043 4.869 3 9-0.948 0.483-1.948 0.649-3 0.5v8c2.988-0.345 4.321 0.988 4 4 0.243 2.422-0.757 4.088-3 5-0.974 2.243-1.308 4.576-1 7 3.234-0.263 4.568 1.237 4 4.5 0.568 3.263-0.766 4.763-4 4.5-0.574 3.767 0.593 6.767 3.5 9 0.667 2 0.667 4 0 6-1.011 0.837-2.178 1.17-3.5 1-0.308 2.424 0.026 4.757 1 7 4.816 2.75 5.15 5.916 1 9.5-24.331 0.5-48.664 0.667-73 0.5-2.6391-1.206-3.4724-3.206-2.5-6 6.0362-5.869 11.87-11.869 17.5-18 2.3333-1.667 4.3333-3.667 6-6 5-4.333 9.667-9 14-14 11.132-10.631 22.132-21.465 33-32.5 1.887-0.78 3.554-0.613 5 0.5z" fill="#eef9fe"/>
<path d="m344.5 448.5c9.006-0.166 18.006 0 27 0.5 1.333 1.333 1.333 2.667 0 4-9 0.667-18 0.667-27 0-1.228-1.49-1.228-2.99 0-4.5z" fill="#eaeaeb"/>
<path d="m378.5 448.5h155v5c-51.668 0.167-103.33 0-155-0.5-1.228-1.49-1.228-2.99 0-4.5z" fill="#ececed"/>
<path d="m645.5 450.5h3c0.268 1.599-0.066 2.932-1 4v-3h-12v3h-1v-4h11z" fill="#9b8a5a"/>
<path d="m146.5 413.5c1.333 1 2.667 2 4 3 12.686 13.186 25.519 26.186 38.5 39 0.5 10.661 0.667 21.328 0.5 32-0.904 0.709-1.237 1.709-1 3-38.504 0.332-76.837-1e-3 -115-1 24.336 0.167 48.669 0 73-0.5 4.15-3.584 3.816-6.75-1-9.5-0.974-2.243-1.308-4.576-1-7 1.322 0.17 2.489-0.163 3.5-1 0.667-2 0.667-4 0-6-2.907-2.233-4.074-5.233-3.5-9 3.234 0.263 4.568-1.237 4-4.5 0.568-3.263-0.766-4.763-4-4.5-0.308-2.424 0.026-4.757 1-7 2.243-0.912 3.243-2.578 3-5 0.321-3.012-1.012-4.345-4-4v-8c1.052 0.149 2.052-0.017 3-0.5 3.043-4.131 2.043-7.131-3-9 0.594-0.464 1.261-0.631 2-0.5z" fill="#cceaf5"/>
<path d="m610.5 430.5c2.851 15.917 5.851 31.917 9 48h49 1c-8.157 0.829-16.49 1.329-25 1.5 0.951 3.057 1.284 6.223 1 9.5h31c-21.872 1.316-43.872 1.316-66 0v-59z" fill="#76daf0"/>
<path d="m278.5 448.5h8v6h-8v-6z" fill="#555c72"/>
<path d="m647.5 454.5h-12v-3h12v3z" fill="#4a3b3c"/>
<path d="m278.5 458.5h8v7h-8v-7z" fill="#5b647d"/>
<path d="m328.5 459.5h23v5c-7.674 0.166-15.341 0-23-0.5-1.228-1.49-1.228-2.99 0-4.5z" fill="#e8e8e9"/>
<path d="m635.5 460.5h21v3h-21v-3z" fill="#50423f"/>
<path d="m635.5 460.5v3h21c-3.462 0.982-7.129 1.315-11 1h-11c-0.268-1.599 0.066-2.932 1-4z" fill="#9b8858"/>
<path d="m645.5 469.5c0.992-0.172 1.658 0.162 2 1h-12v3c-0.934-1.068-1.268-2.401-1-4h11z" fill="#867654"/>
<path d="m328.5 469.5h23v5c-7.674 0.166-15.341 0-23-0.5-1.228-1.49-1.228-2.99 0-4.5z" fill="#ebebec"/>
<path d="m362.5 469.5c14.337-0.167 28.671 0 43 0.5 1.333 1.333 1.333 2.667 0 4-14.329 0.5-28.663 0.667-43 0.5v-5z" fill="#ec8485"/>
<path d="m411.5 469.5c11.005-0.167 22.005 0 33 0.5 1.333 1.333 1.333 2.667 0 4-11 0.667-22 0.667-33 0-1.228-1.49-1.228-2.99 0-4.5z" fill="#16e5ba"/>
<path d="m278.5 469.5h8v6h-8v-6z" fill="#5b637b"/>
<path d="m454.5 469.5h12v5h-12v-5z" fill="#09bced"/>
<path d="m647.5 470.5v3h-12v-3h12z" fill="#51423f"/>
<path d="m556.5 470.5h2c-0.667 5.333-1.333 5.333-2 0z" fill="#8f8f97"/>
<path d="m278.5 479.5h8v7h-8v-7z" fill="#5b637c"/>
<path d="m344.5 480.5c12.005-0.167 24.005 0 36 0.5 1.333 1.333 1.333 2.667 0 4-12 0.667-24 0.667-36 0-1.228-1.49-1.228-2.99 0-4.5z" fill="#e8e8ea"/>
<path d="m446.5 480.5h26v5h-26v-5z" fill="#e8e46d"/>
<path d="m389.5 480.5c16.337-0.167 32.67 0 49 0.5 1.333 1.333 1.333 2.667 0 4-16.33 0.5-32.663 0.667-49 0.5v-5z" fill="#e98283"/>
<path d="m344.5 490.5h97v5c-32.335 0.167-64.668 0-97-0.5-1.228-1.49-1.228-2.99 0-4.5z" fill="#ececed"/>
<path d="m463.5 490.5h69v5h-69v-5z" fill="#ececed"/>
<path d="m278.5 490.5h8v6h-8v-6z" fill="#5a627b"/>
<path d="m190.5 296.5c0.838 0.342 1.172 1.008 1 2-0.167 72.001 0 144 0.5 216 54.264 0.665 108.43 1.331 162.5 2-54.738 0.329-109.4-5e-3 -164-1v-219z" fill="#19141f"/>
<path d="m610.5 515.5c15 0.667 30 1.333 45 2-15.509 0.33-30.842-4e-3 -46-1 0-0.667 0.333-1 1-1z" fill="#81a9ae"/>
<path d="m190.5 515.5c54.595 0.995 109.26 1.329 164 1v2c-54.836 0.332-109.5-1e-3 -164-1v-2z" fill="#3e4450"/>
<path d="m446.5 516.5h163c15.158 0.996 30.491 1.33 46 1 0.617 0.111 1.117 0.444 1.5 1 0.667 3 0.667 6 0 9-1.444 1.655-3.278 2.322-5.5 2-166.9-1.332-333.9-1.332-501 0-1.322 0.17-2.489-0.163-3.5-1-0.789-3.591-0.622-7.091 0.5-10.5 14.329-0.5 28.663-0.667 43-0.5 54.497 0.999 109.16 1.332 164 1v4h92v-6z" fill="#393946"/>
<path d="m354.5 516.5h92v6h-92v-4-2z" fill="#2d2c39"/>
<path d="m651.5 529.5c0 0.667-0.333 1-1 1-164.67-1.333-329.33-1.333-494 0 1 0.667 2 1.333 3 2-3.416-0.028-6.416-1.028-9-3 167.1-1.332 334.1-1.332 501 0z" fill="#3e444f"/>
<path d="m156.5 530.5c164.67-1.333 329.33-1.333 494 0-1.333 0.333-2.667 0.667-4 1-163.17-1-326.5-1.333-490-1z" fill="#323541"/>
<path d="m156.5 530.5c163.5-0.333 326.83 0 490 1-3.287 0.661-6.62 1.161-10 1.5-159.07 0.832-318.07 0.665-477-0.5-1-0.667-2-1.333-3-2z" fill="#2b2a37"/>
</svg>